<?xml version="1.0" encoding="utf-8"?>
<!-- Generator: Adobe Illustrator 23.0.1, SVG Export Plug-In . SVG Version: 6.00 Build 0)  -->
<svg version="1.1" id="Layer_1" xmlns="http://www.w3.org/2000/svg" xmlns:xlink="http://www.w3.org/1999/xlink" x="0px" y="0px"
	 viewBox="0 0 1080 1080" xml:space="preserve">
<g>
	<g>
		<path style="fill:#fff;" d="M588.73,825.75c-53.61,56.43-104.15,120.45-165.42,171.61c-97.17,81.14-238.4,73.2-321.37-8.71
			C19.3,907.07,8,762.57,89.65,667.58c78.42-91.22,164.85-176.96,256.22-255.24c85.06-72.87,228.41-69.9,296.64-1.03
			c18.57,18.74,18.47,55.97,26.94,84.72c-29.69,4.63-67.96,23.39-87.58,11.46c-87.59-53.24-152-22.62-213.8,41.93
			c-55.67,58.15-114.75,113.13-169.05,172.5c-50.54,55.27-69.41,120.63-10.5,179.02c59.05,58.52,122.27,36.21,179.49-11.84
			C492.92,784.21,492.99,784.29,588.73,825.75z"/>
		<path style="fill:#fff;" d="M480.77,265.35c67.31-63.7,125.96-128.15,193.61-181.09C769.8,9.57,907.62,20.89,987.6,100.89
			c79.46,79.48,93.79,221.23,15.79,312.75C921.13,510.16,829.19,600,732.38,682.01c-79.01,66.93-212.25,62.8-279.65-0.15
			c-20.93-19.55-22.34-59.99-32.69-90.86c29.85-3.82,67.74-21.2,88.15-9.09c82.95,49.19,146.14,24.86,206.34-37.04
			c53.8-55.32,109.96-108.39,162.81-164.58c66.63-70.85,76.46-148.66,21.96-194.48c-72.93-61.3-135.87-26.95-194.75,28.48
			C613,300.46,612.58,300.01,480.77,265.35z"/>
	</g>
</g>
</svg>
